<svg xmlns="http://www.w3.org/2000/svg" version="1.1" xmlns:xlink="http://www.w3.org/1999/xlink" xmlns:svgjs="http://svgjs.dev/svgjs" width="1000" height="378" viewBox="0 0 1000 378"><g transform="matrix(1,0,0,1,-0.6060606060606801,0.26231323388179817)"><svg viewBox="0 0 396 150" data-background-color="#fafafa" preserveAspectRatio="xMidYMid meet" height="378" width="1000" xmlns="http://www.w3.org/2000/svg" xmlns:xlink="http://www.w3.org/1999/xlink"><g id="tight-bounds" transform="matrix(1,0,0,1,0.24000000000003752,-0.10409255312769972)"><svg viewBox="0 0 395.5199999999999 150.2081851062554" height="150.2081851062554" width="395.5199999999999"><g><svg viewBox="0 0 397.4975999999999 150.95922603178667" height="150.2081851062554" width="395.5199999999999"><g><rect width="397.4975999999999" height="4.623681711786667" x="0" y="82.96055438222224" fill="grey" opacity="1" stroke-width="0" stroke="transparent" fill-opacity="1" class="rect-o-0" data-fill-palette-color="secondary" rx="1%" id="o-0" data-palette-color="#130912"></rect></g><g transform="matrix(1,0,0,1,0.9887999999999693,99.68811492067559)"><svg viewBox="0 0 395.52 51.27111111111111" height="51.27111111111111" width="395.52"><g><svg viewBox="0 0 395.52 51.27111111111111" height="51.27111111111111" width="395.52" id="textblock"><g><svg viewBox="0 0 395.52 51.27111111111111" height="51.27111111111111" width="395.52"><g transform="matrix(1,0,0,1,0,0)"><svg width="395.52" viewBox="6.25 -50 337.489990234375 43.75" height="51.27111111111111" data-palette-color="#130912"><path d="M43.75-6.25L6.25-6.25 6.25-12.5 18.75-12.5 18.75-43.75 6.25-43.75 6.25-50 43.75-50 43.75-43.75 31.25-43.75 31.25-12.5 43.75-12.5 43.75-6.25ZM87.5-6.25L50-6.25 50-50 87.5-50 87.5-43.75 93.75-43.75 93.75-31.25 87.5-31.25 87.5-25 93.75-25 93.75-12.5 87.5-12.5 87.5-6.25ZM62.5-43.75L62.5-31.25 81.25-31.25 81.25-43.75 62.5-43.75ZM62.5-25L62.5-12.5 81.25-12.5 81.25-25 62.5-25ZM112.5-6.25L100-6.25 100-50 137.5-50 137.5-43.75 143.75-43.75 143.75-25 131.25-25 131.25-18.75 137.5-18.75 137.5-12.5 143.75-12.5 143.75-6.25 125-6.25 125-12.5 118.75-12.5 118.75-18.75 112.5-18.75 112.5-6.25ZM112.5-43.75L112.5-25 125-25 125-31.25 131.25-31.25 131.25-43.75 112.5-43.75ZM187.49-6.25L156.24-6.25 156.24-12.5 149.99-12.5 149.99-43.75 156.24-43.75 156.24-50 187.49-50 187.49-43.75 193.74-43.75 193.74-12.5 187.49-12.5 187.49-6.25ZM162.49-43.75L162.49-12.5 181.24-12.5 181.24-43.75 162.49-43.75ZM212.49-6.25L199.99-6.25 199.99-50 212.49-50 212.49-31.25 231.24-31.25 231.24-50 243.74-50 243.74-6.25 231.24-6.25 231.24-25 212.49-25 212.49-6.25ZM293.74-6.25L256.24-6.25 256.24-12.5 268.74-12.5 268.74-43.75 256.24-43.75 256.24-50 293.74-50 293.74-43.75 281.24-43.75 281.24-12.5 293.74-12.5 293.74-6.25ZM312.49-6.25L299.99-6.25 299.99-50 312.49-50 312.49-43.75 318.74-43.75 318.74-37.5 324.99-37.5 324.99-43.75 331.24-43.75 331.24-50 343.74-50 343.74-6.25 331.24-6.25 331.24-31.25 324.99-31.25 324.99-18.75 318.74-18.75 318.74-31.25 312.49-31.25 312.49-6.25Z" opacity="1" transform="matrix(1,0,0,1,0,0)" fill="grey" class="undefined-text-0" data-fill-palette-color="primary" id="text-0"></path></svg></g></svg></g></svg></g></svg></g><g transform="matrix(1,0,0,1,145.5380107462686,0)"><svg viewBox="0 0 106.4215785074627 70.85667555555557" height="70.85667555555557" width="106.4215785074627"><g><svg xmlns="http://www.w3.org/2000/svg" xmlns:xlink="http://www.w3.org/1999/xlink" version="1.1" x="8" y="0" viewBox="7.199999809265137 16.5 85.5 67" enable-background="new 0 0 100 100" xml:space="preserve" height="70.85667555555557" width="90.4215785074627" class="icon-icon-0" data-fill-palette-color="accent" id="icon-0"><path d="M73.4 68.4L66.6 61l11.2-10.3L66.6 40.4l6.8-7.4 19.3 17.8L73.4 68.4zM33.4 61L22.2 50.7l11.2-10.3-6.8-7.4L7.2 50.7l19.3 17.8L33.4 61zM62.8 18.8l-9.8-2.3L37.7 81.2l9.8 2.3L62.8 18.8z" fill="#ff7700" data-fill-palette-color="accent"></path></svg></g></svg></g><g><rect width="69.00489074626863" height="4.623681711786667" y="65.2329938437689" x="251.9595892537313" fill="grey" data-fill-palette-color="secondary"></rect><rect width="69.00489074626863" height="4.623681711786667" y="65.2329938437689" x="76.53311999999998" fill="grey" data-fill-palette-color="secondary"></rect></g></svg></g><defs></defs></svg><rect width="395.5199999999999" height="150.2081851062554" fill="none" stroke="none" visibility="hidden"></rect></g></svg></g></svg>